<?xml version="1.0" encoding="UTF-8"?>
<svg width="68px" height="86px" viewBox="0 0 68 86" version="1.1" xmlns="http://www.w3.org/2000/svg" xmlns:xlink="http://www.w3.org/1999/xlink">
    <!-- Generator: Sketch 64 (93537) - https://sketch.com -->
    <title>nav_share</title>
    <desc>Created with Sketch.</desc>
    <g id="SF-Symbols" stroke="none" stroke-width="1" fill="none" fill-rule="evenodd">
        <g id="Artboard" transform="translate(-478.000000, -391.000000)" fill="#FFFFFF" fill-rule="nonzero">
            <g id="nav_share" transform="translate(478.000000, 391.000000)">
                <path d="M34.4082,56.0977 C35.8242,56.0977 37.0938,54.9258 37.0938,53.5098 L37.0938,13.2266 L36.8496,7.6113 L39.877,10.7363 L46.0293,17.1816 C46.5176,17.7188 47.2012,18.0117 47.8848,18.0117 C49.252,18.0117 50.3262,16.9863 50.3262,15.6191 C50.3262,14.8867 50.0332,14.3496 49.5449,13.8613 L36.3613,1.0195 C35.6777,0.3359 35.0918,0.1406 34.4082,0.1406 C33.7246,0.1406 33.1387,0.3359 32.4551,1.0195 L19.2227,13.8613 C18.7344,14.3496 18.4414,14.8867 18.4414,15.6191 C18.4414,16.9863 19.4668,18.0117 20.8828,18.0117 C21.5176,18.0117 22.25,17.7188 22.7383,17.1816 L28.8906,10.7363 L31.918,7.5625 L31.7227,13.2266 L31.7227,53.5098 C31.7227,54.9258 32.9434,56.0977 34.4082,56.0977 Z M12.3867,85.78516 L56.332,85.78516 C64.0957,85.78516 68.002,81.927734 68.002,74.31055 L68.002,35.6387 C68.002,28.0703 64.0957,24.1641 56.332,24.1641 L45.5898,24.1641 L45.5898,29.584 L56.2344,29.584 C60.2383,29.584 62.582,31.7324 62.582,35.9316 L62.582,74.01758 C62.582,78.2168 60.2383,80.365234 56.2344,80.365234 L12.4844,80.365234 C8.4316,80.365234 6.1855,78.2168 6.1855,74.01758 L6.1855,35.9316 C6.1855,31.7324 8.4316,29.584 12.4844,29.584 L23.2266,29.584 L23.2266,24.1641 L12.3867,24.1641 C4.6719,24.1641 0.76562,28.0215 0.76562,35.6387 L0.76562,74.31055 C0.76562,81.927734 4.6719,85.78516 12.3867,85.78516 Z" id="Shape"></path>
            </g>
        </g>
    </g>
</svg>